<svg width="320" height="320" xmlns="http://www.w3.org/2000/svg">

    <!--  plat, creux, bosse, plat -->
    <path stroke="yellow" fill="green" stroke-width="2" fill-opacity="0.5"
    d="M 0 0 L 100 0 L 100 35 C 60 10 65 95 100 65 L 100 100 L 65 100 
    C 90 140 10 140     35 100 L 0 100 z"/>


    <path  
    d="M 0 0 L 0 100 L 35 100 C 10 140 90 140 65 100 L 100 100 L 100 0 z" 
    stroke="yellow"   fill="yellow"   stroke-width="2"   fill-opacity="0.5" transform="translate(0,120)"/>

    <!-- shape creux, plat, bosse, plat -->
    <path  
    d="M 20 20 L 20 120 L 55 120 C 30 160 110 160 85 120 L 120 120 L 120 20 L 85 20 C 110 60 30 60 55 20 z" 
    stroke="yellow"   fill="pink" stroke-width="2"  fill-opacity="0.5" transform="translate(150,120)"/>
    <path  
    d="M 0 20 L 0 120 L 35 120 C 10 160 90 160 65 120 L 100 120 L 100 20 z" 
    stroke="yellow"   fill="blue"   stroke-width="2"   fill-opacity="0.5" transform="translate(120,-20)"/>
</svg>