<?xml version="1.0" encoding="utf-8"?>
<svg width="700" height="520" xmlns="http://www.w3.org/2000/svg">
  <circle cx="77.514" cy="244.446" r="2" fill="red"/>
  <defs>
    <path id="p2" stroke-width="2" fill-opacity="0.5" d="m243.94 40.625c-15.2 0.56-32.25 5.653-41.35 16.563-13.23 28.187 18.91 15.172 22.69 34.687s-18.9 20.595-18.9 20.595h-97.76l0.13 96.94s1.08 22.68 20.59 18.9c15.86-3.07 10.24-24.88 22.69-25.84 2.88-0.22 6.72 0.67 12 3.15 10.91 9.1 16 26.15 16.56 41.35 0.21 5.61-0.28 10.89-1.25 15.5-0.02 0.2-0.06 0.42-0.09 0.62-1.69 13.12-6.76 26.42-15.97 34.1-28.19 13.23-15.17-18.91-34.69-22.69-14.21-2.75-18.61 8.48-19.97 14.81v102.91h101.6c6.2 1.22 18.24 5.49 15.4 20.12-3.77 19.52-35.88 6.5-22.65 34.69 7.67 9.21 20.98 14.28 34.09 15.97 0.21 0.03 0.42 0.07 0.63 0.09 4.61 0.97 9.89 1.46 15.5 1.25 15.2-0.56 32.25-5.65 41.34-16.56 13.23-28.19-18.91-15.17-22.69-34.69-3.78-19.51 18.91-20.59 18.91-20.59l97.19-0.28s-0.63-98.25-0.63-98.25-1.08-22.69-20.59-18.91c-19.52 3.78-6.5 35.92-34.69 22.69-10.91-9.1-16-26.14-16.56-41.34-0.21-5.61 0.28-10.89 1.25-15.5 0.02-0.21 0.07-0.42 0.09-0.63 1.7-13.11 6.76-26.42 15.97-34.09 5.29-2.48 9.13-3.38 12-3.16 12.46 0.97 6.83 22.74 22.69 25.81 18.21 3.53 20.26-15.34 20.47-17.96v-98.41h-102.16c-6.4-1.48-16.96-5.99-14.28-19.845 3.78-19.515 35.89-6.5 22.66-34.687-7.68-9.207-20.98-14.275-34.1-15.969-0.2-0.027-0.42-0.069-0.62-0.094-4.61-0.967-9.89-1.457-15.5-1.25z"/>
  </defs>
  <path stroke-width="2" fill-opacity="0.5" d="M -64.94 170.222 C -80.14 170.782 -97.19 175.875 -106.29 186.785 C -119.52 214.972 -87.38 201.957 -83.6 221.472 C -79.82 240.987 -102.5 242.067 -102.5 242.067 L -200.26 242.067 L -200.13 339.007 C -200.13 339.007 -199.05 361.687 -179.54 357.907 C -163.68 354.837 -169.3 333.027 -156.85 332.067 C -153.97 331.847 -150.13 332.737 -144.85 335.217 C -133.94 344.317 -128.85 361.367 -128.29 376.567 C -128.08 382.177 -128.57 387.457 -129.54 392.067 C -129.56 392.267 -129.6 392.487 -129.63 392.687 C -131.32 405.807 -136.39 419.107 -145.6 426.787 C -173.79 440.017 -160.77 407.877 -180.29 404.097 C -194.5 401.347 -198.9 412.577 -200.26 418.907 L -200.26 521.817 L -98.66 521.817 C -92.46 523.037 -80.42 527.307 -83.26 541.937 C -87.03 561.457 -119.14 548.437 -105.91 576.627 C -98.24 585.837 -84.93 590.907 -71.82 592.597 C -71.61 592.627 -71.4 592.667 -71.19 592.687 C -66.58 593.657 -61.3 594.147 -55.69 593.937 C -40.49 593.377 -23.44 588.287 -14.35 577.377 C -1.12 549.187 -33.26 562.207 -37.04 542.687 C -40.82 523.177 -18.13 522.097 -18.13 522.097 L 79.06 521.817 C 79.06 521.817 78.43 423.567 78.43 423.567 C 78.43 423.567 77.35 400.877 57.84 404.657 C 38.32 408.437 51.34 440.577 23.15 427.347 C 12.24 418.247 7.15 401.207 6.59 386.007 C 6.38 380.397 6.87 375.117 7.84 370.507 C 7.86 370.297 7.91 370.087 7.93 369.877 C 9.63 356.767 14.69 343.457 23.9 335.787 C 29.19 333.307 33.03 332.407 35.9 332.627 C 48.36 333.597 42.73 355.367 58.59 358.437 C 76.8 361.967 78.85 343.097 79.06 340.477 L 79.06 242.067 L -23.1 242.067 C -29.5 240.587 -40.06 236.077 -37.38 222.222 C -33.6 202.707 -1.49 215.722 -14.72 187.535 C -22.4 178.328 -35.7 173.26 -48.82 171.566 C -49.02 171.539 -49.24 171.497 -49.44 171.472 C -54.05 170.505 -59.33 170.015 -64.94 170.222 Z" fill="green" stroke="yellow" transform="matrix(0, 1, -1, 0, 321.480103, 442.680084)"/>
  <path stroke-width="2" fill-opacity="0.5" d="M 214.876 169.372 C 199.676 169.932 182.626 175.025 173.526 185.935 C 160.296 214.122 192.436 201.107 196.216 220.622 C 199.996 240.137 177.316 241.217 177.316 241.217 L 79.556 241.217 L 79.686 338.157 C 79.686 338.157 80.766 360.837 100.276 357.057 C 116.136 353.987 110.516 332.177 122.966 331.217 C 125.846 330.997 129.686 331.887 134.966 334.367 C 145.876 343.467 150.966 360.517 151.526 375.717 C 151.736 381.327 151.246 386.607 150.276 391.217 C 150.256 391.417 150.216 391.637 150.186 391.837 C 148.496 404.957 143.426 418.257 134.216 425.937 C 106.026 439.167 119.046 407.027 99.526 403.247 C 85.316 400.497 80.916 411.727 79.556 418.057 L 79.556 520.967 L 181.156 520.967 C 187.356 522.187 199.396 526.457 196.556 541.087 C 192.786 560.607 160.676 547.587 173.906 575.777 C 181.576 584.987 194.886 590.057 207.996 591.747 C 208.206 591.777 208.416 591.817 208.626 591.837 C 213.236 592.807 218.516 593.297 224.126 593.087 C 239.326 592.527 256.376 587.437 265.466 576.527 C 278.696 548.337 246.556 561.357 242.776 541.837 C 238.996 522.327 261.686 521.247 261.686 521.247 L 358.876 520.967 C 358.876 520.967 358.666 342.247 358.876 339.627 L 358.876 241.217 L 256.716 241.217 C 250.316 239.737 239.756 235.227 242.436 221.372 C 246.216 201.857 278.326 214.872 265.096 186.685 C 257.416 177.478 244.116 172.41 230.996 170.716 C 230.796 170.689 230.576 170.647 230.376 170.622 C 225.766 169.655 220.486 169.165 214.876 169.372 Z" fill="green" stroke="yellow"/>
  <path stroke-width="2" fill-opacity="0.5" d="M 323.419 -71.874 L 44.099 -71.874 L 44.229 25.066 C 44.229 25.066 45.309 47.746 64.819 43.966 C 80.679 40.896 75.059 19.086 87.509 18.126 C 90.389 17.906 94.229 18.796 99.509 21.276 C 110.419 30.376 115.509 47.426 116.069 62.626 C 116.279 68.236 115.789 73.516 114.819 78.126 C 114.799 78.326 114.759 78.546 114.729 78.746 C 113.039 91.866 107.969 105.166 98.759 112.846 C 70.569 126.076 83.589 93.936 64.069 90.156 C 49.859 87.406 45.459 98.636 44.099 104.966 L 44.099 207.876 L 145.699 207.876 C 151.899 209.096 163.939 213.366 161.099 227.996 C 157.329 247.516 125.219 234.496 138.449 262.686 C 146.119 271.896 159.429 276.966 172.539 278.656 C 172.749 278.686 172.959 278.726 173.169 278.746 C 177.779 279.716 183.059 280.206 188.669 279.996 C 203.869 279.436 220.919 274.346 230.009 263.436 C 243.239 235.246 211.099 248.266 207.319 228.746 C 203.539 209.236 226.229 208.156 226.229 208.156 L 323.419 207.876 L 322.789 109.626 C 322.789 109.626 321.709 86.936 302.199 90.716 C 282.679 94.496 295.699 126.636 267.509 113.406 C 256.599 104.306 251.509 87.266 250.949 72.066 C 250.739 66.456 251.229 61.176 252.199 56.566 C 252.219 56.356 252.269 56.146 252.289 55.936 C 253.989 42.826 259.049 29.516 268.259 21.846 C 273.549 19.366 277.389 18.466 280.259 18.686 C 292.719 19.656 287.089 41.426 302.949 44.496 C 321.159 48.026 323.209 29.156 323.419 26.536 L 323.419 -71.874 Z" fill="green" stroke="yellow" transform="matrix(0, 1, -1, 0, 287.844002, -79.674004)"/>
  <path stroke-width="2" fill-opacity="0.5" d="M -63.492 -109.353 C -78.692 -108.793 -95.742 -103.7 -104.842 -92.79 C -118.072 -64.603 -85.932 -77.618 -82.152 -58.103 C -78.372 -38.588 -101.052 -37.508 -101.052 -37.508 L -198.812 -37.508 L -198.682 59.432 C -198.682 59.432 -197.602 82.112 -178.092 78.332 C -162.232 75.262 -167.852 53.452 -155.402 52.492 C -152.522 52.272 -148.682 53.162 -143.402 55.642 C -132.492 64.742 -127.402 81.792 -126.842 96.992 C -126.632 102.602 -127.122 107.882 -128.092 112.492 C -128.112 112.692 -128.152 112.912 -128.182 113.112 C -129.872 126.232 -134.942 139.532 -144.152 147.212 C -172.342 160.442 -159.322 128.302 -178.842 124.522 C -193.052 121.772 -197.452 133.002 -198.812 139.332 L -198.812 242.242 L -97.212 242.242 C -91.012 243.462 -78.972 247.732 -81.812 262.362 C -85.582 281.882 -117.692 268.862 -104.462 297.052 C -96.792 306.262 -83.482 311.332 -70.372 313.022 C -70.162 313.052 -69.952 313.092 -69.742 313.112 C -65.132 314.082 -59.852 314.572 -54.242 314.362 C -39.042 313.802 -21.992 308.712 -12.902 297.802 C 0.328 269.612 -31.812 282.632 -35.592 263.112 C -39.372 243.602 -16.682 242.522 -16.682 242.522 L 80.508 242.242 C 80.508 242.242 79.878 143.992 79.878 143.992 C 79.878 143.992 78.798 121.302 59.288 125.082 C 39.768 128.862 52.788 161.002 24.598 147.772 C 13.688 138.672 8.598 121.632 8.038 106.432 C 7.828 100.822 8.318 95.542 9.288 90.932 C 9.308 90.722 9.358 90.512 9.378 90.302 C 11.078 77.192 16.138 63.882 25.348 56.212 C 30.638 53.732 34.478 52.832 37.348 53.052 C 49.808 54.022 44.178 75.792 60.038 78.862 C 78.248 82.392 80.298 63.522 80.508 60.902 L 80.508 -37.508 L -21.652 -37.508 C -28.052 -38.988 -38.612 -43.498 -35.932 -57.353 C -32.152 -76.868 -0.042 -63.853 -13.272 -92.04 C -20.952 -101.247 -34.252 -106.315 -47.372 -108.009 C -47.572 -108.036 -47.792 -108.078 -47.992 -108.103 C -52.602 -109.07 -57.882 -109.56 -63.492 -109.353 Z" fill="green" stroke="yellow"/>
</svg>