<?xml version="1.0" encoding="utf-8"?>
<svg viewBox="0 0 500 500" xmlns="http://www.w3.org/2000/svg">
  <g transform="matrix(1, 0, 0, 1, 0, 0)">
    <path style="fill: white; stroke: black; stroke-width: 1px;" d="M 0 0 L 100 0 C 99.49 20 91.25 50.73 111.25 41.38 C 131.25 32.04 131.25 72.04 111.25 61.38 C 91.25 50.73 100.21 80 100 100 C 80 99.78 49.5 88.46 60.3 108.46 C 71.11 128.46 31.11 128.46 40.3 108.46 C 49.5 88.46 20 100.13 0 100 L 0 0 Z"/>
    <path style="fill: white; stroke: black; stroke-width: 1px;" d="M 0 100 C 20 100.13 49.5 88.46 40.3 108.46 C 31.11 128.46 71.11 128.46 60.3 108.46 C 49.5 88.46 80 99.78 100 100 C 99.79 120 108.03 147.81 88.03 138.99 C 68.03 130.17 68.03 170.17 88.03 158.99 C 108.03 147.81 101.4 180 100 200 C 80 200.1 47.59 211.42 59.58 191.42 C 71.58 171.42 31.58 171.42 39.58 191.42 C 47.59 211.42 20 200.07 0 200 L 0 100 Z"/>
    <path style="fill: white; stroke: black; stroke-width: 1px;" d="M 0 200 C 20 200.07 47.59 211.42 39.58 191.42 C 31.58 171.42 71.58 171.42 59.58 191.42 C 47.59 211.42 80 200.1 100 200 C 98.6 220 91.22 251.75 111.22 241.2 C 131.22 230.66 131.22 270.66 111.22 261.2 C 91.22 251.75 99.32 280 100 300 L 0 300 L 0 200 Z"/>
    <path style="fill: white; stroke: black; stroke-width: 1px;" d="M 100 0 L 200 0 C 198.19 20 209.06 49.91 189.06 41.66 C 169.06 33.42 169.06 73.42 189.06 61.66 C 209.06 49.91 198.23 80 200 100 C 180 99.13 149.08 89.67 159.11 109.67 C 169.13 129.67 129.13 129.67 139.11 109.67 C 149.08 89.67 120 100.22 100 100 C 100.21 80 91.25 50.73 111.25 61.38 C 131.25 72.04 131.25 32.04 111.25 41.38 C 91.25 50.73 99.49 20 100 0 Z"/>
    <path style="fill: white; stroke: black; stroke-width: 1px;" d="M 100 100 C 120 100.22 149.08 89.67 139.11 109.67 C 129.13 129.67 169.13 129.67 159.11 109.67 C 149.08 89.67 180 99.13 200 100 C 201.77 120 188.5 147.99 208.5 139.15 C 228.5 130.31 228.5 170.31 208.5 159.15 C 188.5 147.99 199.19 180 200 200 C 180 201.98 151.74 210.73 160.42 190.73 C 169.11 170.73 129.11 170.73 140.42 190.73 C 151.74 210.73 120 199.9 100 200 C 101.4 180 108.03 147.81 88.03 158.99 C 68.03 170.17 68.03 130.17 88.03 138.99 C 108.03 147.81 99.79 120 100 100 Z"/>
    <path style="fill: white; stroke: black; stroke-width: 1px;" d="M 100 200 C 120 199.9 151.74 210.73 140.42 190.73 C 129.11 170.73 169.11 170.73 160.42 190.73 C 151.74 210.73 180 201.98 200 200 C 200.81 220 191.05 247.71 211.05 239.7 C 231.05 231.68 231.05 271.68 211.05 259.7 C 191.05 247.71 201.79 280 200 300 L 100 300 C 99.32 280 91.22 251.75 111.22 261.2 C 131.22 270.66 131.22 230.66 111.22 241.2 C 91.22 251.75 98.6 220 100 200 Z"/>
    <path style="fill: white; stroke: black; stroke-width: 1px;" d="M 200 0 L 300 0 C 299.92 20 291.91 47.28 311.91 39.23 C 331.91 31.17 331.91 71.17 311.91 59.23 C 291.91 47.28 301.37 80 300 100 C 280 99.31 250.45 91.17 259.61 111.17 C 268.76 131.17 228.76 131.17 239.61 111.17 C 250.45 91.17 220 100.87 200 100 C 198.23 80 209.06 49.91 189.06 61.66 C 169.06 73.42 169.06 33.42 189.06 41.66 C 209.06 49.91 198.19 20 200 0 Z"/>
    <path style="fill: white; stroke: black; stroke-width: 1px;" d="M 200 100 C 220 100.87 250.45 91.17 239.61 111.17 C 228.76 131.17 268.76 131.17 259.61 111.17 C 250.45 91.17 280 99.31 300 100 C 298.63 120 291.31 151.41 311.31 140.13 C 331.31 128.85 331.31 168.85 311.31 160.13 C 291.31 151.41 298.78 180 300 200 C 280 199.71 249.72 208.21 258.02 188.21 C 266.31 168.21 226.31 168.21 238.02 188.21 C 249.72 208.21 220 198.02 200 200 C 199.19 180 188.5 147.99 208.5 159.15 C 228.5 170.31 228.5 130.31 208.5 139.15 C 188.5 147.99 201.77 120 200 100 Z"/>
    <path style="fill: white; stroke: black; stroke-width: 1px;" d="M 200 200 C 220 198.02 249.72 208.21 238.02 188.21 C 226.31 168.21 266.31 168.21 258.02 188.21 C 249.72 208.21 280 199.71 300 200 C 301.22 220 288.64 248.64 308.64 239.59 C 328.64 230.54 328.64 270.54 308.64 259.59 C 288.64 248.64 298.52 280 300 300 L 200 300 C 201.79 280 191.05 247.71 211.05 259.7 C 231.05 271.68 231.05 231.68 211.05 239.7 C 191.05 247.71 200.81 220 200 200 Z"/>
    <path style="fill: white; stroke: black; stroke-width: 1px;" d="M 300 0 L 400 0 L 400 100 C 380 99.18 346.69 109.3 358.42 89.3 C 370.15 69.3 330.15 69.3 338.42 89.3 C 346.69 109.3 320 100.69 300 100 C 301.37 80 291.91 47.28 311.91 59.23 C 331.91 71.17 331.91 31.17 311.91 39.23 C 291.91 47.28 299.92 20 300 0 Z"/>
    <path style="fill: white; stroke: black; stroke-width: 1px;" d="M 300 100 C 320 100.69 346.69 109.3 338.42 89.3 C 330.15 69.3 370.15 69.3 358.42 89.3 C 346.69 109.3 380 99.18 400 100 L 400 200 C 380 198.91 350.97 191.92 360.31 211.92 C 369.65 231.92 329.65 231.92 340.31 211.92 C 350.97 191.92 320 200.29 300 200 C 298.78 180 291.31 151.41 311.31 160.13 C 331.31 168.85 331.31 128.85 311.31 140.13 C 291.31 151.41 298.63 120 300 100 Z"/>
    <path style="fill: white; stroke: black; stroke-width: 1px;" d="M 300 200 C 320 200.29 350.97 191.92 340.31 211.92 C 329.65 231.92 369.65 231.92 360.31 211.92 C 350.97 191.92 380 198.91 400 200 L 400 300 L 300 300 C 298.52 280 288.64 248.64 308.64 259.59 C 328.64 270.54 328.64 230.54 308.64 239.59 C 288.64 248.64 301.22 220 300 200 Z"/>
  </g>
</svg>