<?xml version="1.0" encoding="utf-8"?>
<!DOCTYPE svg PUBLIC "-//W3C//DTD SVG 20010904//EN" "http://www.w3.org/TR/2001/REC-SVG-20010904/DTD/svg10.dtd">

<svg xmlns="http://www.w3.org/2000/svg" xmlns:xlink="http://www.w3.org/1999/xlink" viewBox="0 0 30 20" id="svg1" onload="makeDraggable(evt)">
  <defs>
    <clipPath id="path_1_1">
      <path d="M 0 0 c 14,0 42,-14 28,7 c -7,14 26,14 19,0 c -14,-21 14,-7 28,-7 c 0,14 -14,42 7,28 c 14,-7 14,26 0,19 c -21,-14 -7,14 -7,28 c -14,0 -42,-14 -28,7 c 7,14 -26,14 -19,0 c 14,-21 -14,-7 -28,-7 c 0,-14 14,-42 -7,-28 c -14,7 -14,-26 0,-19 c 21,14 7,-14 7,-28 "/>
    </clipPath>
  </defs>

  <style>
  .static {
    cursor: not-allowed;
  }
  .draggable {
    cursor: move;
  }
  </style>

  <script xlink:href="js/svgDraggable.js"/>
  <script type="text/javascript"><![CDATA[

  ]]> </script>


  <image class="draggable"  width="50px" height="50px" clip-path="url(#path_1_1)" xlink:href="https://unsplash.it/200/200?image=1074"/>
  <rect x="0" y="0" width="30" height="20" fill="#eee"/>
  <rect class="static" fill="#888" x="2" y="4" width="6" height="2"/>
  <rect class="draggable" fill="#007bff" x="2" y="4" width="6" height="2" transform="rotate(90, 5, 5) translate(10, 0)"/>
  <ellipse class="draggable" fill="#ff00af" cx="5" cy="5" rx="3" ry="2" transform="translate(10, 0)"/>
  <polygon class="draggable" fill="#ffa500" transform="rotate(15, 15, 15)" points="16.9 15.6 17.4 18.2 15 17 12.6 18.2 13.1 15.6 11.2 13.8 13.8 13.4 15 11 16.2 13.4 18.8 13.8"/>
  <path class="draggable" stroke="#2bad7b" stroke-width="0.5" fill="none" d="M1 5C5 1 5 9 9 5" transform="translate(20)"/>
  <text class="draggable" x="25" y="15" text-anchor="middle" font-size="3px" alignment-baseline="middle">Drag</text>
</svg>